<?xml version="1.0" standalone="no"?>
<!DOCTYPE svg PUBLIC "-//W3C//DTD SVG 1.1//EN" "http://www.w3.org/Graphics/SVG/1.1/DTD/svg11.dtd" >
<svg xmlns="http://www.w3.org/2000/svg">
<metadata>Generated by IcoMoon</metadata>
<defs>
<font id="icomoon" horiz-adv-x="1024">
<font-face units-per-em="1024" ascent="960" descent="-64" />
<missing-glyph horiz-adv-x="1024" />
<glyph unicode="&#x20;" horiz-adv-x="512" d="" />
<glyph unicode="&#xe900;" glyph-name="instagram" d="M704 960h-384c-176.704 0-320-143.296-320-320v-384c0-176.704 143.296-320 320-320h384c176.704 0 320 143.296 320 320v384c0 176.704-143.296 320-320 320zM928 256c0-123.52-100.48-224-224-224h-384c-123.52 0-224 100.48-224 224v384c0 123.52 100.48 224 224 224h384c123.52 0 224-100.48 224-224v-384zM512 704c-141.376 0-256-114.624-256-256s114.624-256 256-256 256 114.624 256 256-114.624 256-256 256zM512 288c-88.192 0-160 71.808-160 160 0 88.256 71.808 160 160 160s160-71.744 160-160c0-88.192-71.808-160-160-160zM821.312 723.2c0-18.84-15.272-34.112-34.112-34.112s-34.112 15.272-34.112 34.112c0 18.84 15.272 34.112 34.112 34.112s34.112-15.272 34.112-34.112z" />
<glyph unicode="&#xe901;" glyph-name="facebook" d="M896 960h-768c-70.592 0-128-57.408-128-128v-768c0-70.592 57.408-128 128-128h384v352h-128v160h128v128c0 106.048 85.952 192 192 192h128v-160h-64c-35.328 0-64 3.328-64-32v-128h160l-64-160h-96v-352h192c70.592 0 128 57.408 128 128v768c0 70.592-57.408 128-128 128z" />
<glyph unicode="&#xe902;" glyph-name="next" d="M266.84-64c-5.547 0-11.095 2.124-15.32 6.349-8.473 8.473-8.473 22.168 0 30.641l474.999 474.999-474.999 474.999c-8.473 8.473-8.473 22.168 0 30.641s22.168 8.473 30.641 0l490.32-490.298c8.473-8.473 8.473-22.168 0-30.641l-490.32-490.341c-4.247-4.226-9.773-6.349-15.32-6.349z" />
<glyph unicode="&#xe903;" glyph-name="ship" d="M362.667 618.667h42.667v-42.667h-42.667zM618.667 618.667h42.667v-42.667h-42.667zM851.917 397.667c3.864 10.063-0.375 21.415-9.875 26.501l-95.375 50.865v207.633c0 11.793-9.551 21.333-21.333 21.333h-85.333v64c0 11.793-9.551 21.333-21.333 21.333h-213.333c-11.783 0-21.333-9.54-21.333-21.333v-64h-85.333c-11.783 0-21.333-9.54-21.333-21.333v-207.633l-95.375-50.865c-9.499-5.082-13.739-16.439-9.875-26.501l86.931-226.017c-20.651 10.117-45.254 20.35-88.347 20.35v-42.667c37.625 0 55.313-8.834 75.793-19.084 22.101-11.063 47.165-23.583 94.853-23.583s72.728 12.52 94.833 23.583c20.48 10.25 38.147 19.084 75.769 19.084 37.646 0 55.334-8.834 75.814-19.084 22.125-11.063 47.186-23.583 94.897-23.583s72.772 12.52 94.897 23.583c20.48 10.25 38.168 19.084 75.814 19.084v42.667c-43.080 0-67.68-10.209-88.34-20.333zM426.667 746.667h170.667v-42.667h-170.667zM320 661.333h384v-163.543l-146.647 78.21h18.647v42.667h-42.667v-29.856l-11.291 6.021c-6.27 3.335-13.814 3.335-20.084 0l-11.291-6.021v29.856h-42.667v-42.667h18.647l-146.647-78.21zM606.812 168.417c-22.125 11.063-47.186 23.583-94.897 23.583-47.688 0-72.748-12.541-94.853-23.583-20.48-10.25-38.147-19.084-75.749-19.084-11.179 0-20.565 0.795-28.815 2.161l-93.809 243.903 271.978 145.039v-220.436h42.667v220.436l271.978-145.039-93.805-243.896c-8.267-1.369-17.678-2.167-28.88-2.167-37.646 0-55.334 8.834-75.814 19.084z" />
<glyph unicode="&#xe904;" glyph-name="sort" d="M1021.44 799.328l-466.688-720c-2.848-4.448-7.712-7.136-12.992-7.328-0.128 0-0.288 0-0.448 0-5.12 0-9.952 2.432-12.928 6.56l-525.312 720.032c-3.552 4.832-4.064 11.328-1.344 16.672s8.256 8.736 14.272 8.736h992c5.856 0 11.264-3.232 14.016-8.352 2.784-5.088 2.592-11.424-0.576-16.32z" />
<glyph unicode="&#xe905;" glyph-name="suitcase" d="M789.333 490.667h-21.333v64c0 11.793-9.551 21.333-21.333 21.333h-85.333c-11.783 0-21.333-9.54-21.333-21.333v-64h-21.333c-7.489 0-14.65-1.27-21.333-3.485v110.152c0 35.29-26.791 64-59.73 64h-68.27v106.667c0 11.793-9.551 21.333-21.333 21.333h-128c-11.783 0-21.333-9.54-21.333-21.333v-106.667h-68.27c-32.939 0-59.73-28.71-59.73-64v-384c0-29.945 19.316-55.078 45.281-62.027-1.673-3.881-2.615-8.144-2.615-12.64 0-17.674 14.326-32 32-32s32 14.326 32 32c0 3.761-0.768 7.315-1.959 10.667h217.252c-1.191-3.352-1.959-6.905-1.959-10.667 0-17.674 14.326-32 32-32s32 14.326 32 32c0 4.492-0.942 8.759-2.615 12.64 9.015 2.413 17.231 6.98 24.105 13.227 6.868-5.717 15.025-10.103 24.057-12.646-1.843-4.038-2.929-8.492-2.929-13.22 0-17.674 14.326-32 32-32s32 14.326 32 32c0 3.761-0.768 7.315-1.959 10.667h89.252c-1.191-3.352-1.959-6.905-1.959-10.667 0-17.674 14.326-32 32-32s32 14.326 32 32c0 4.721-1.085 9.168-2.918 13.203 26.361 7.386 45.633 30.218 45.633 57.194v221.873c0 32.939-28.71 59.73-64 59.73zM682.667 533.333h42.667v-42.667h-42.667zM341.333 746.667h85.333v-85.333h-85.333zM213.333 597.333c0 11.561 7.813 21.333 17.063 21.333h307.207c9.25 0 17.063-9.772 17.063-21.333v-384c0-11.561-7.813-21.333-17.063-21.333h-307.207c-9.25 0-17.063 9.772-17.063 21.333zM810.667 209.063c0-9.25-9.772-17.063-21.333-17.063h-170.667c-11.561 0-21.333 7.813-21.333 17.063v221.873c0 9.25 9.772 17.063 21.333 17.063h170.667c11.561 0 21.333-7.813 21.333-17.063zM277.333 554.667h42.667v-298.667h-42.667zM362.667 554.667h42.667v-298.667h-42.667zM448 554.667h42.667v-298.667h-42.667zM710.076 259.557l30.165 30.165 42.608-42.608-30.165-30.165zM683.049 400.002l-42.667-64h85.333z" />
<glyph unicode="&#xe906;" glyph-name="airplane" d="M782.053 572.283c4.082 3.478 8.042 7.103 11.769 10.854 35.458 35.417 56.542 82.545 59.399 132.669 1.147 19.75-6.229 39.127-20.231 53.125-13.981 13.957-33.147 21.395-53.231 20.292-55.354-3.209-107.65-29.208-143.462-71.253l-42.479-49.783-51.268 14.114 8.813 8.813c8.332 8.332 8.332 21.842 0 30.17-8.332 8.332-21.839 8.332-30.17 0l-25.958-25.958-47.316 13.025 8.905 8.905c8.332 8.332 8.332 21.839 0 30.17s-21.839 8.332-30.17 0l-26.051-26.051-113.562 31.263c-7.417 2.082-15.312-0.020-20.75-5.478l-53.521-53.521c-4.833-4.833-7.062-11.667-5.98-18.418 1.062-6.728 5.27-12.564 11.356-15.667l256.451-131.092-129.468-151.729-110.025 30.252c-7.417 2.103-15.312-0.041-20.75-5.478l-37.441-37.437c-4.751-4.751-6.98-11.438-6.042-18.084 0.939-6.625 4.96-12.438 10.834-15.688l137.086-75.564 75.503-137.025c3.229-5.874 9.042-9.895 15.688-10.834 1-0.147 2-0.208 3-0.208 5.625 0 11.063 2.229 15.084 6.25l37.437 37.437c5.437 5.417 7.52 13.353 5.478 20.75l-30.249 109.879 151.859 129.604 131.045-256.358c3.103-6.083 8.936-10.291 15.667-11.356 1.126-0.188 2.229-0.27 3.335-0.27 5.605 0 11.063 2.208 15.084 6.25l53.521 53.521c5.437 5.417 7.52 13.353 5.478 20.75l-31.263 113.565 25.969 25.969c8.332 8.332 8.332 21.839 0 30.17s-21.842 8.332-30.17 0l-8.82-8.82-13.025 47.316 25.876 25.876c8.332 8.332 8.332 21.839 0 30.17s-21.839 8.332-30.17 0l-8.731-8.731-14.087 51.176zM263.666 684.203l24.020 24.020 275.562-75.861-60.18-70.526zM402.712 304.63c-6.291-5.376-8.916-13.916-6.707-21.897l30.563-110.981-8.605-8.585-64.771 117.565c-1.959 3.543-4.854 6.438-8.397 8.397l-117.647 64.836 8.605 8.605 111.128-30.563c8.021-2.208 16.541 0.437 21.897 6.707l300.008 351.573c28.314 33.273 69.67 53.794 113.377 56.334 7.772 0.73 15.186-2.376 20.668-7.854 5.478-5.478 8.25-12.773 7.813-20.521-2.27-39.646-18.937-76.919-47.022-104.98-2.98-3-6.103-5.833-9.291-8.564zM772.304 223.775l-24.023-24.020-122.32 239.312 70.506 60.174z" />
<glyph unicode="&#xe907;" glyph-name="bicycle" d="M716.165 509c-15.445 0-30.246-2.686-44.114-7.414l-67.591 117.081h53.501c8.103 0 14.688-6.584 14.688-14.688 0-4.041-1.642-7.7-4.287-10.356l21.367-37.021c18.207 12.254 29.208 34.427 24.47 58.812-5.291 27.228-30.771 45.92-58.511 45.92h-88.187c-7.625 0-14.667-4.062-18.48-10.667s-3.813-14.729 0-21.333l30.549-52.917h-151.525l-24.385 42.25h31.447c9.236 0 16.725 7.489 16.725 16.725 0 8.649-6.598 15.875-15.213 16.657l-102.12 9.284c-11.783 0-21.333-9.551-21.333-21.333s9.551-21.333 21.333-21.333h19.886l34.645-60.017-33.673-58.317c-14.834 5.509-30.799 8.666-47.527 8.666-75.622 0-137.165-61.542-137.165-137.165s61.542-137.168 137.168-137.168c72.728 0 132.263 56.962 136.731 128.584h48.247v-33.959c0-11.793 9.54-21.333 21.333-21.333h45.353v42.667h-24.020v28.297l78.769 137.431 20.050-34.731c-33.485-25.037-55.299-64.867-55.299-109.79 0-75.626 61.542-137.168 137.168-137.168s137.165 61.546 137.165 137.172-61.542 137.165-137.168 137.165zM575.065 533.75l-60.976-106.383-61.409 106.383zM413.669 515.977l63.532-110.060h-36.663c-7.591 29.515-24.699 55.197-47.951 73.547zM370.941 441.969c10.916-9.83 19.521-22.129 24.931-36.052h-45.745zM307.835 277.333c-52.105 0-94.502 42.397-94.502 94.502s42.397 94.502 94.502 94.502c8.946 0 17.572-1.331 25.781-3.666l-38.926-67.417c-3.813-6.605-3.813-14.729 0-21.333s10.854-10.667 18.48-10.667h88.733c-4.362-48.097-44.861-85.92-94.068-85.92zM716.165 277.333c-52.105 0-94.502 42.397-94.502 94.502 0 29.153 13.285 55.252 34.106 72.602l31.249-54.125c5.895-10.202 18.941-13.705 29.143-7.81h0.003c10.206 5.891 13.701 18.941 7.81 29.15l-29.99 51.948c7.127 1.724 14.531 2.737 22.18 2.737 52.105 0 94.502-42.397 94.502-94.502s-42.397-94.502-94.502-94.502z" />
<glyph unicode="&#xe908;" glyph-name="van" d="M597.333 512h-149.333c-11.783 0-21.333-9.54-21.333-21.333v-106.667c0-11.793 9.551-21.333 21.333-21.333h149.333c11.783 0 21.333 9.54 21.333 21.333v106.667c0 11.793-9.551 21.333-21.333 21.333zM576 405.333h-106.667v64h106.667zM256 405.333h128v-42.667h-128zM256 469.333h128v-42.667h-128zM836.782 499.77c-25.347 53.668-75.069 89.115-132.782 96.184v65.379c0 11.793-9.551 21.333-21.333 21.333h-85.333v85.333c0 11.793-9.551 21.333-21.333 21.333h-149.333c-11.783 0-21.333-9.54-21.333-21.333v-64h-128c-11.783 0-21.333-9.54-21.333-21.333v-87.484c-48.626-9.912-85.333-53.009-85.333-104.516v-256c0-35.29 28.71-64 64-64h2.809c9.51-36.748 42.848-64 82.524-64s73.015 27.252 82.524 64h218.948c9.51-36.748 42.851-64 82.524-64s73.018 27.252 82.524 64h2.809c35.29 0 64 28.71 64 64v192c0.003 25.832-5.601 50.5-16.548 73.103zM803.328 469.333c4.857-13.52 7.339-27.819 7.339-42.667v-21.333h-106.667v64zM661.333 640v-42.667h-64v42.667zM448 746.667h106.667v-149.333h-106.667v85.333zM405.333 661.333v-64h-106.667v64zM320 149.333c-23.532 0-42.667 19.145-42.667 42.667s19.135 42.667 42.667 42.667 42.667-19.145 42.667-42.667-19.135-42.667-42.667-42.667zM704 149.333c-23.532 0-42.667 19.145-42.667 42.667s19.135 42.667 42.667 42.667 42.667-19.145 42.667-42.667-19.135-42.667-42.667-42.667zM789.333 213.333h-2.809c-9.506 36.748-42.848 64-82.524 64s-73.018-27.252-82.524-64h-218.948c-9.513 36.748-42.851 64-82.528 64s-73.015-27.252-82.524-64h-2.809c-11.759 0-21.333 9.564-21.333 21.333v256c0 35.29 28.71 64 64 64h405.333c37.434 0 71.67-15.735 95.488-42.667h-95.488c-11.783 0-21.333-9.54-21.333-21.333v-106.667c0-11.793 9.551-21.333 21.333-21.333h128v-128c0-11.769-9.574-21.333-21.333-21.333z" />
<glyph unicode="&#xe909;" glyph-name="beach-umbrella" d="M756.801 138.452c-18.773 33.492-43.947 62.293-73.387 85.118-14.507 11.093-29.863 20.692-46.080 28.798-35.413 17.708-74.667 27.948-115.2 29.225-3.413 0.427-6.827 0.427-10.24 0.427-11.093 0-21.975-0.642-32.642-2.133-8.823-1.017-17.521-2.567-26.129-4.4l74.827 276.794 195.437-52.186c5.523-1.481 11.424-0.669 16.357 2.239 4.925 2.929 8.479 7.694 9.861 13.254 12.766 51.623 6.386 98.215-18.982 138.441-39.052 61.972-112.882 91.511-150.142 102.963l5.553 21.77-41.342 10.571-5.53-21.685c-198.735 44.684-268.858-119.747-269.561-121.474-2.328-5.673-2.103-12.076 0.618-17.572s7.677-9.54 13.602-11.127c0 0 0 0 0.010-0.003l202.895-54.176-81.841-302.739c-57.436-23.682-106.377-66.14-137.687-122.105-3.628-6.612-3.628-14.722 0.212-21.122 3.84-6.615 10.882-10.667 18.35-10.667h452.267c7.683 0 14.718 4.052 18.562 10.667 3.837 6.403 3.837 14.51 0.212 21.122zM694.627 631.136c15.411-24.511 21.275-52.654 17.524-83.872l-77.773 20.767c8.369 54.487-1.761 96.966-16.561 128.007 28.061-14.179 58.112-35.127 76.81-64.901zM472.573 732.433c-28.481-20.586-55.658-53.132-71.127-102.205l-80.346 21.453c19.787 29.99 65.748 80.207 151.473 80.753zM325.652 149.333c37.12 46.718 90.453 77.868 149.548 87.252 11.947 1.707 24.32 2.775 36.693 2.775 2.345 0 4.482 0 6.827-0.215 44.373-1.065 86.613-14.722 122.453-38.185 7.042-4.267 13.657-9.175 20.053-14.507 13.442-10.882 25.815-23.252 36.905-37.12z" />
<glyph unicode="&#xe90a;" glyph-name="sun" d="M682.667 447.997c0-94.257-76.41-170.667-170.667-170.667s-170.667 76.41-170.667 170.667c0 94.257 76.41 170.667 170.667 170.667s170.667-76.41 170.667-170.667zM490.667 789.333h42.667v-106.667h-42.667zM490.667 213.333h42.667v-106.667h-42.667zM746.667 469.333h106.667v-42.667h-106.667zM170.667 469.333h106.667v-42.667h-106.667zM662.711 266.975l30.163 30.163 75.406-75.406-30.163-30.163zM255.507 674.268l30.163 30.163 75.406-75.406-30.163-30.163zM255.462 221.776l75.406 75.406 30.163-30.163-75.406-75.406zM662.755 628.981l75.406 75.406 30.163-30.163-75.406-75.406z" />
<glyph unicode="&#xe90b;" glyph-name="palm-tree" d="M850.64 138.462c-18.77 33.488-43.94 62.287-73.38 85.111-6.605 119.409-76.155 223.816-178.592 277.757l235.22 21.664c7.936 0.73 14.8 5.833 17.801 13.206s1.645 15.811-3.533 21.873c-47.005 55.139-118.122 84.074-190.228 77.449-12.81-1.181-25.368-3.512-37.588-6.813l103.936 125.030c5.093 6.144 6.342 14.582 3.249 21.934-3.092 7.332-10.018 12.332-17.968 12.977-72.137 5.581-142.985-24.081-189.273-79.763-24.050-28.945-39.943-63.126-47.097-99.089-23.323 28.201-53.466 50.708-88.296 64.778-67.13 27.102-143.578 19.831-204.459-19.436-6.697-4.332-10.428-12.018-9.677-19.958 0.751-7.916 5.864-14.769 13.247-17.77l170.301-68.748c-17.35-5.728-34.137-13.489-49.865-23.514-61.041-38.919-99.516-105.363-102.905-177.739-0.369-7.96 3.717-15.452 10.615-19.449 4.376-2.543 9.407-3.389 14.213-2.584 2.785 0.464 5.485 1.488 7.946 3.062l187.433 119.491c8.496-10.977 21.763-18.074 36.721-18.074 15.288 0 28.809 7.417 37.277 18.818 8.414-8.455 20.057-13.691 32.925-13.691 1.492 0 2.959 0.085 4.413 0.222 26.249-44.377 40.25-95.106 40.25-148.289 0-2.345 0-4.693-0.212-7.038-88.74-10.24-167.875-62.502-212.029-141.425-3.628-6.612-3.628-14.718 0.212-21.118 3.84-6.615 10.878-10.667 18.347-10.667h452.219c7.68 0 14.718 4.052 18.558 10.667 3.843 6.403 3.843 14.513 0.218 21.125zM731.184 252.368c-18.579 9.291-38.233 16.463-58.559 21.425 13.885 15.008 26.58 31.113 38.052 48.135 9.585-21.968 16.551-45.288 20.507-69.56zM687.251 365.046c-15.469-26.412-33.983-50.736-55.439-72.195-3.963-3.963-8.096-7.718-12.227-11.476-1.198 0.055-2.386 0.174-3.587 0.212v5.332c0 24.433-2.615 48.408-7.639 71.649 4.355 3.977 8.762 8.151 13.298 12.687 11.404 11.404 21.985 23.538 31.836 36.147 12.541-13.036 23.835-27.211 33.758-42.356zM572.679 466.654c17.452-8.646 33.891-18.876 49.056-30.611-8.332-10.865-17.343-21.299-26.979-31.201-6.967 18.565-15.599 36.454-25.815 53.511 1.505 2.618 2.761 5.393 3.738 8.301zM661.845 593.029c5.519 0.522 11.028 0.771 16.521 0.771 37.246 0 73.441-11.581 103.615-32.748l-232.383-21.395c29.611 30.184 69.294 49.435 112.247 53.371zM553.097 681.626c27.59 33.184 65.922 55.016 107.561 62.327l-149.183-179.459c-0.393 42.284 14.053 83.948 41.622 117.132zM368.916 635.003c40.018-16.145 72.492-45.995 92.167-83.408l-216.405 87.344c40.144 13.292 84.255 12.23 124.239-3.936zM327.383 489.185c20.664 13.196 43.523 21.815 67.099 25.76 12.496 2.092 25.194 2.785 37.868 2.229l2.4-0.969c-8.346-4.973-15.012-12.455-18.906-21.443l-163.806-104.445c12.51 40.387 38.97 75.674 75.346 98.867zM419.54 149.34c37.117 46.715 90.443 77.858 149.531 87.245 11.943 1.707 24.317 2.772 36.69 2.772 2.345 0 4.482 0 6.827-0.212 44.37-1.065 86.607-14.718 122.44-38.182 7.042-4.267 13.653-9.175 20.053-14.507 13.438-10.878 25.812-23.252 36.902-37.117z" />
<glyph unicode="&#xe90c;" glyph-name="left" d="M306.871 448.009l455.216 475.924c8.126 8.52 7.834 22.020-0.666 30.167-8.458 8.146-21.958 7.792-30.167-0.666l-469.342-490.675c-7.874-8.25-7.874-21.25 0-29.501l469.342-490.677c4.208-4.376 9.792-6.584 15.416-6.584 5.292 0 10.626 1.958 14.75 5.916 8.5 8.146 8.792 21.646 0.666 30.167l-455.216 475.928z" />
<glyph unicode="&#xe90d;" glyph-name="vk-social-logotype" d="M512 960c-282.76 0-512-229.229-512-512s229.24-512 512-512 512 229.229 512 512-229.24 512-512 512zM771.714 392.625c23.864-23.308 49.11-45.245 70.533-70.962 9.491-11.377 18.437-23.141 25.246-36.372 9.721-18.867 0.943-39.556-15.944-40.677l-104.893 0.021c-27.090-2.242-48.649 8.684-66.825 27.205-14.509 14.76-27.97 30.526-41.945 45.789-5.709 6.264-11.722 12.162-18.888 16.803-14.299 9.302-26.724 6.453-34.916-8.485-8.349-15.2-10.256-32.045-11.052-48.963-1.142-24.733-8.601-31.197-33.417-32.359-53.028-2.483-103.343 5.563-150.106 32.297-41.253 23.581-73.183 56.862-101.007 94.543-54.18 73.456-95.675 154.077-132.958 237.013-8.391 18.678-2.252 28.672 18.353 29.060 34.235 0.66 68.469 0.576 102.704 0.031 13.933-0.22 23.151-8.192 28.504-21.339 18.5-45.517 41.18-88.823 69.601-128.987 7.574-10.696 15.305-21.36 26.315-28.913 12.152-8.339 21.412-5.584 27.143 7.982 3.666 8.622 5.248 17.84 6.044 27.080 2.724 31.647 3.048 63.284-1.666 94.805-2.933 19.726-14.027 32.464-33.69 36.194-10.015 1.896-8.548 5.605-3.677 11.324 8.454 9.889 16.374 16.007 32.202 16.007l118.512 0.021c18.678-3.666 22.868-12.047 25.404-30.861l0.105-131.701c-0.22-7.281 3.656-28.861 16.73-33.627 10.476-3.457 17.39 4.945 23.654 11.576 28.421 30.16 48.67 65.756 66.804 102.599 8.003 16.248 14.907 33.061 21.611 49.906 4.986 12.456 12.738 18.584 26.797 18.374l114.122-0.136c3.363 0 6.778-0.031 10.109-0.608 19.233-3.289 24.503-11.565 18.552-30.327-9.365-29.479-27.562-54.034-45.349-78.652-19.066-26.357-39.399-51.792-58.276-78.264-17.348-24.199-15.975-36.382 5.563-57.396z" />
<glyph unicode="&#xe90e;" glyph-name="maps-and-flags" d="M512 960c-204.49 0-370.854-166.364-370.854-370.852 0-253.776 331.878-626.334 346.008-642.070 13.272-14.782 36.444-14.756 49.692 0 14.13 15.736 346.008 388.294 346.008 642.070-0.004 204.488-166.366 370.852-370.854 370.852zM512 402.562c-102.884 0-186.584 83.702-186.584 186.586s83.702 186.584 186.584 186.584 186.582-83.702 186.582-186.586-83.7-186.584-186.582-186.584z" />
<glyph unicode="&#xe90f;" glyph-name="email" d="M789.334 533.334c-129.396 0-234.666-105.27-234.666-234.666s105.27-234.668 234.666-234.668c41.25 0 81.812 10.854 117.354 31.416 10.188 5.896 13.688 18.938 7.77 29.146-5.896 10.208-18.958 13.73-29.146 7.77-29.042-16.792-62.23-25.666-95.98-25.666-105.876 0-192 86.126-192 192s86.126 192 192 192 192-86.126 192-192v-21.334c0-23.52-19.146-42.666-42.666-42.666s-42.666 19.146-42.666 42.666v85.334c0 11.792-9.542 21.334-21.334 21.334-5.738 0-10.894-2.322-14.724-6-18.856 16.802-43.428 27.334-70.61 27.334-58.812 0-106.666-47.854-106.666-106.666s47.854-106.668 106.668-106.668c31.792 0 60.060 14.262 79.62 36.404 15.454-21.954 40.88-36.404 69.714-36.404 47.062 0 85.332 38.27 85.332 85.334v21.334c0 129.394-105.27 234.666-234.666 234.666zM789.334 234.666c-35.292 0-64 28.708-64 64s28.708 64 64 64 64-28.708 64-64c0-35.292-28.708-64-64-64zM35.396 782.624l351.438-285.916c1.166-0.958 2.438-1.792 3.77-2.458 4.688-2.396 9.646-3.604 14.77-3.604 5.416 0 10.834 1.416 18.75 6.208l351.168 285.75c5.208 4.23 8.104 10.646 7.854 17.334s-3.626 12.876-9.126 16.708c-14.394 10.042-31.25 15.354-48.686 15.354h-640c-17.438 0-34.27-5.292-48.666-15.334-5.5-3.812-8.876-10-9.126-16.708-0.25-6.688 2.646-13.104 7.854-17.334zM512 298.666c0 152.918 124.416 277.334 277.334 277.334 11.792 0 21.334 9.542 21.334 21.334v114.186c0 8.23-4.73 15.73-12.166 19.27-7.438 3.458-16.23 2.438-22.626-2.73l-327.314-266.352-3.75-2.48c-24.604-15.104-54.834-15.876-82.604 2.458l-327.416 266.398c-6.354 5.188-15.146 6.23-22.626 2.73-7.436-3.544-12.166-11.044-12.166-19.272v-391.542c0-47.062 38.27-85.334 85.334-85.334h408.73c6.188 0 12.062 2.688 16.126 7.354 4.042 4.666 5.876 10.876 5 17-2.17 15.168-3.19 27.772-3.19 39.646z" />
<glyph unicode="&#xe910;" glyph-name="skype" d="M964 448c0 248.141-203.859 452-452 452-9.672 0-21.25-0.32-30.773-0.906-51.938 39.375-115.836 60.906-181.227 60.906-165.406 0-300-136.594-300-302 0-65.391 21.531-129.289 60.906-181.227-0.586-9.523-0.906-19.102-0.906-28.773 0-248.141 203.859-452 452-452 9.672 0 19.25 0.32 28.773 0.906 51.938-39.375 115.836-60.906 181.227-60.906 165.406 0 302 134.594 302 300 0 65.391-21.531 131.289-60.906 183.227 0.586 9.523 0.906 19.102 0.906 28.773zM512 146c-59.852 0-118.891 16.086-162.578 45.234-38.266 25.531-71.961 60.43-52.031 101.891 20.641 42.281 78.219 40.602 100.461 13.219 15.938-19.602 62.82-39.469 117.805-39.469 44.563 0 116.344 23.438 116.344 59.125 0 36.016-71.555 62-120 62-148.43 0-242 89.93-242 180 0 87.469 84.773 176.414 241.852 176.469 59.5 0.023 119.031-13.867 160.695-41.703 38.289-25.5 71.992-60.43 52.063-101.891-19.367-39.68-75.445-44.078-100.492-13.156-15.906 19.539-60.789 39.406-115.781 39.406-44.555 0-118.336-23.438-118.336-59.125 0-36.016 73.555-60 122-60 148.43 0 240-91.93 240-182 0-90.492-91.984-180-240-180z" />
<glyph unicode="&#xe911;" glyph-name="telephone" d="M997.614 204.433l-127.266 127.294c-33.956 33.956-93.282 34.014-127.294 0l-21.222-21.222 254.568-254.554 21.214 21.214c35.238 35.24 35.12 92.208 0 127.268zM678.231 269.261c-26.78-20.746-64.984-19.918-89.454 4.606l-251.634 251.808c-24.526 24.526-25.352 62.758-4.606 89.472l-253.982 253.968c-109.262-127.36-104.99-319.265 15.6-439.855l398.205-398.379c115.72-115.716 305.269-131.064 439.863-15.594l-253.994 253.976zM395.005 807.218l-127.266 127.294c-33.956 33.956-93.282 34.014-127.294 0l-21.222-21.222 254.568-254.554 21.214 21.216c35.236 35.236 35.12 92.204 0 127.266z" />
<glyph unicode="&#xe912;" glyph-name="chevron" d="M512-64c-136.758 0-265.336 53.258-362.039 149.961s-149.961 225.281-149.961 362.039 53.258 265.336 149.961 362.039c96.703 96.703 225.281 149.961 362.039 149.961s265.336-53.258 362.039-149.961c96.703-96.703 149.961-225.281 149.961-362.039s-53.258-265.336-149.961-362.039c-96.703-96.703-225.281-149.961-362.039-149.961zM512 880c-238.203 0-432-193.797-432-432s193.797-432 432-432 432 193.797 432 432-193.797 432-432 432zM788.57 516l-56.57 56.57-220-220-220 220-56.57-56.57 276.57-276.57z" />
<glyph unicode="&#xe913;" glyph-name="down-arrow" d="M512 960c-282.326 0-512-229.674-512-512s229.674-512 512-512 512 229.674 512 512-229.674 512-512 512zM755.498 503.168l-213.332-213.334c-8.32-8.32-19.242-12.502-30.166-12.502s-21.846 4.182-30.166 12.502l-213.332 213.334c-16.682 16.682-16.682 43.648 0 60.33s43.648 16.682 60.33 0l183.168-183.168 183.168 183.168c16.682 16.682 43.648 16.682 60.33 0 16.684-16.682 16.684-43.648 0-60.33z" />
</font>
</defs>
</svg>
