<?xml version="1.0" encoding="utf-8"?>
<!-- Generator: Adobe Illustrator 16.0.0, SVG Export Plug-In . SVG Version: 6.00 Build 0)  -->
<!DOCTYPE svg PUBLIC "-//W3C//DTD SVG 1.1//EN" "http://www.w3.org/Graphics/SVG/1.1/DTD/svg11.dtd">
<svg version="1.1" id="Layer_1" xmlns="http://www.w3.org/2000/svg" xmlns:xlink="http://www.w3.org/1999/xlink" x="0px" y="0px"
	 width="96.786px" height="38.288px" viewBox="0 0 96.786 38.288" enable-background="new 0 0 96.786 38.288" xml:space="preserve">
<g>
	<path fill="#2B2D53" d="M2.621,5.417v0.602h1.188V5.417c0.955-0.03,1.631-0.233,2.026-0.607c0.396-0.374,0.594-0.845,0.594-1.414
		c0-0.572-0.198-1.045-0.596-1.418C5.437,1.604,4.761,1.402,3.809,1.372V0.861H2.621v0.511C1.698,1.402,1.03,1.598,0.619,1.958
		C0.206,2.318,0,2.796,0,3.393c0,0.565,0.197,1.037,0.592,1.413C0.985,5.183,1.663,5.386,2.621,5.417z M3.809,2.241
		c0.964,0,1.445,0.374,1.445,1.12c0,0.298-0.048,0.524-0.144,0.679C5.015,4.195,4.853,4.318,4.625,4.41
		c-0.228,0.091-0.5,0.138-0.816,0.138V2.241z M1.516,2.535C1.741,2.339,2.11,2.241,2.621,2.241v2.306
		c-0.965,0-1.445-0.375-1.445-1.123C1.176,3.027,1.289,2.731,1.516,2.535z"/>
	<polygon fill="#2B2D53" points="8.554,4.294 8.554,0.858 7.42,0.858 7.42,6.019 8.632,6.019 11.061,2.65 11.061,6.019 
		12.195,6.019 12.195,0.858 10.986,0.858 	"/>
	<path fill="#2B2D53" d="M14.643,4.072h0.791c0.548,0,0.967-0.024,1.257-0.074c0.213-0.04,0.422-0.122,0.629-0.245
		c0.205-0.123,0.375-0.293,0.51-0.508c0.133-0.216,0.2-0.482,0.2-0.8c0-0.411-0.116-0.745-0.348-1.005
		c-0.231-0.259-0.521-0.428-0.864-0.505c-0.225-0.052-0.704-0.078-1.441-0.078h-1.945v5.161h1.212V4.072z M14.643,1.731h0.586
		c0.437,0,0.728,0.012,0.872,0.035c0.196,0.031,0.359,0.107,0.488,0.229c0.127,0.122,0.191,0.277,0.191,0.464
		c0,0.153-0.046,0.287-0.137,0.401c-0.092,0.115-0.219,0.2-0.379,0.254c-0.161,0.053-0.48,0.081-0.959,0.081h-0.663V1.731z"/>
	<polygon fill="#2B2D53" points="20.023,1.957 21.211,6.019 22.378,6.019 23.569,1.957 23.569,6.019 24.695,6.019 24.695,0.858 
		22.878,0.858 21.801,4.378 20.712,0.858 18.897,0.858 18.897,6.019 20.023,6.019 	"/>
	<path fill="#2B2D53" d="M27.07,4.846h2.4l0.523,1.172h1.319l-2.404-5.161h-1.281l-2.339,5.161h1.286L27.07,4.846z M28.254,2.062
		l0.827,1.915h-1.638L28.254,2.062z"/>
	<path fill="#2B2D53" d="M61.624,28.444c-1.824,3.209-4.592,5.727-8.001,7.08v-3.275h-0.005c0-0.067,0-0.135,0-0.202
		c0.001-6.825,0.002-13.567,0.002-20.217c0-0.16,0-0.321,0-0.48c-0.215,0.164-0.006,0.005-0.211,0.157
		c-1.034,1.04-2.139,2.181-3.268,3.348c-0.598,0.618-1.2,1.242-1.805,1.865c-0.611,0.63-1.221,1.254-1.827,1.868
		c-0.437,0.442-0.869,0.877-1.296,1.301c-0.045,0.044-0.091,0.091-0.136,0.135L45.03,7.52l-0.001-0.242l-0.001-0.334h-0.007V1.863
		c0.489-0.074,0.986-0.124,1.488-0.153v15.809c0.614-0.62,1.224-1.239,1.827-1.861V1.71c0.611,0.035,1.213,0.102,1.805,0.204v11.879
		c1.174-1.218,2.333-2.417,3.481-3.578V2.842c3.707,1.473,6.655,4.292,8.456,7.887h0.219c0.562,0,1.066,0.054,1.544,0.136
		C60.905,4.437,54.657,0,47.424,0c-7.308,0-13.604,4.529-16.503,11.062c0.599-0.17,1.321-0.284,1.965-0.339
		c1.949-3.711,5.135-6.604,8.982-8.04v4.272h-0.005c0,0.107,0,0.215,0,0.322c0,0.081,0,0.162,0,0.242
		c-0.001,6.26-0.002,12.6-0.002,18.854c0,0.256,0,0.514,0,0.771c0,0.083,0.002,0.08,0.006,0.324
		c0.001,0.015,0.001,0.027,0.001,0.045c0.002,0.108,0.004,0.257,0.007,0.473c0,0.016,0.989-0.878,1.137-1.018
		c0.67-0.642,1.34-1.282,2.01-1.924c0.495-0.475,0.992-0.949,1.488-1.424c0.609-0.584,1.218-1.166,1.827-1.749
		c0.229-0.219,0.458-0.438,0.687-0.657c0.089-0.085,0.431-0.401,0.726-0.664c0.147-0.131,0.285-0.25,0.371-0.318
		c0,2.074,0.011,4.358,0.021,6.645c0.008,1.756,0.016,3.507,0.017,5.169c0.001,0.067,0.001,0.136,0.001,0.202h-0.018v4.124
		c-0.592,0.103-1.193,0.169-1.805,0.204V22.928c-0.609,0.583-1.218,1.165-1.827,1.749v11.9c-0.502-0.028-0.999-0.078-1.488-0.152
		V26.101c-0.83,0.793-1.659,1.588-2.488,2.381c-0.085,0.08-0.391,0.355-0.665,0.599v6.524c-3.521-1.314-6.49-3.85-8.463-7.113
		h-1.867c3.116,5.845,9.061,9.797,15.886,9.797c6.865,0,12.84-3.998,15.94-9.898c-0.337,0.035-0.691,0.055-1.066,0.055H61.624z"/>
	<path fill="#2B2D53" d="M93.408,27.623h3.378l-0.007-2.729V14.22l-0.006-2.686h-6.941c-1.732,0-2.356,0.302-3.242,1.051
		c-0.824,0.697-1.325,1.383-1.426,3.529c-0.06,1.247,0.073,2.576,0.887,3.182c0.169,0.125,0.175,0.154,0.383,0.258
		c0.305,0.153,0.686,0.216,0.686,0.216c-0.937,0.058-1.218,0.976-1.277,1.151c-0.27,0.787-0.202,0.537-0.504,1.772l-0.414,2.243
		l-0.479,2.684l3.149,0.019l1.62-5.907c0.157-0.543,0.924-0.649,1.684-0.649h2.514v3.812L93.408,27.623z M91.33,17.224
		c-2.097-0.031-3.185,0.422-3.185-1.455c0-1.787,0.928-1.549,2.718-1.549h3.067v3.004H91.33z"/>
	<path fill="#2B2D53" d="M79.504,12.375c-3.331-1.532-7.055-0.936-9.288,1.489c-2.773,3.012-2.835,7.771-0.128,10.9
		c3.925,4.539,9.174,3.021,11.67,0.117c0.401-0.467,0.604-1.105,0.984-1.826c-1.775-0.028-3.24-0.359-4.646,0.574
		c-1.584,1.053-3.633,0.883-5.101-0.331c-0.477-0.395-0.792-0.985-1.182-1.485c0.062-0.073,0.126-0.145,0.188-0.217
		c3.825,0,7.652,0,11.54,0c0.096-0.559,0.204-1.053,0.262-1.553C84.188,16.761,82.496,13.753,79.504,12.375z M79.644,17.77
		c-2.47,0-4.937,0-7.407,0c0.045-1.507,1.468-2.429,3.579-2.441C78.15,15.314,79.84,16.471,79.644,17.77z"/>
	<path fill="#2B2D53" d="M9.616,12.197c-0.604-0.467-2.278-0.706-3.207-0.706h-6.37L0,27.681h3.535v-9.301
		c0-1.331,0.001-3.003,0.027-3.547c0.003-0.036,2.804-0.046,3.424,0.009c0.411,0.037,0.443,0.141,0.648,0.458
		C7.82,15.585,8,16.211,8,17.279v10.401h3.03V17.279c0-1.477-0.085-2.576-0.253-3.3C10.608,13.257,10.222,12.662,9.616,12.197z"/>
	<path fill="#2B2D53" d="M19.968,11.491c-5.046,0-7.567,2.696-7.567,8.09c0,2.646,0.636,4.658,1.91,6.035s3.165,2.064,5.673,2.064
		c5.045,0,7.566-2.699,7.566-8.1c0-2.693-0.646-4.714-1.94-6.064C24.314,12.166,22.435,11.491,19.968,11.491z M22.055,23.826
		c-0.443,0.698-1.139,1.048-2.087,1.048c-0.958,0-1.653-0.365-2.088-1.094c-0.433-0.729-0.648-2.128-0.648-4.199
		c0-2.11,0.219-3.518,0.656-4.224c0.438-0.706,1.133-1.059,2.08-1.059c0.958,0,1.656,0.351,2.095,1.053
		c0.438,0.702,0.657,2.111,0.657,4.229C22.72,21.714,22.498,23.128,22.055,23.826z"/>
	<path fill="#2B2D53" d="M32.128,25.943v-8.664c0-1.068,0.19-1.694,0.387-1.98c0.218-0.317,0.251-0.421,0.687-0.458
		c0.232-0.02,0.757-0.031,1.335-0.036c1.053-0.009,2.287,0.003,2.288,0.027c0.028,0.544,0.029,2.216,0.029,3.547v9.301h0.21h3.531
		l-0.041-16.189h-6.742c-0.373,0-0.859,0.035-1.354,0.103c-0.778,0.107-1.57,0.299-1.984,0.571c-0.017,0.011-0.04,0.021-0.056,0.032
		c-0.64,0.466-1.05,1.06-1.229,1.783c-0.179,0.724-0.268,1.823-0.268,3.3v10.401h2.209h0.998V25.943z"/>
	<path fill="#2B2D53" d="M65.488,12.356c-0.359-0.239-0.782-0.416-1.249-0.551c-0.521-0.151-1.112-0.235-1.77-0.255
		c-0.104-0.003-0.196-0.016-0.303-0.016H54.99v16.104h7.063h0.113c0.608,0,1.151-0.062,1.65-0.164
		c0.644-0.133,1.206-0.342,1.671-0.646c0.827-0.538,1.238-1.283,1.238-2.224V14.591C66.727,13.645,66.315,12.9,65.488,12.356z
		 M63.184,23.444v0.557c0,0.914-0.718,0.812-2.149,0.812h-2.532v-10.29h2.619c1.374,0,2.062,0.45,2.062,1.349V23.444z"/>
</g>
</svg>
